<svg id="组_1" data-name="组 1" xmlns="http://www.w3.org/2000/svg" width="2048" height="2048" viewBox="0 0 2048 2048">
<path id="形状_1" data-name="形状 1" fill="var(--primary-color)" stroke="var(--primary-color-hover)" stroke-width="1" fill-rule="evenodd" d="M1285,872l-47,4-81,1s-163.486,17.721-164,31c-5.275,7.462,96,12,96,12,82.1,4.844,203.69,19.239,207,22s104.89,16.988-1,37c-112.12,26.24-383.83,50.21-526,68-368.126,67.14-397.689,121.71-395,164,1.283,20.18-22.481,70.3,256,101s528.01,110.27,569,224c108.85,38.08,413.35-10.68,458-18-135.57-164.18-399.55-236.94-638-289-248.895-54.34-97.635-188.66,426-191,315.61-42.384,288.27-96.172-19-116s-226.13-15-254-19-51.31-12.572-1-17,86.69-.231,106-9S1285,872,1285,872Z"/>
  <path id="形状_3" data-name="形状 3" fill="none" stroke="var(--primary-color-hover)" stroke-width="6" fill-rule="evenodd" d="M1288,1379c-225.86-118.55-374.994-94.23-559-160s104-126,104-126,413.9-81.95,590-102-1-51-1-51-160.75-20.59-268-29-37-16-37-16"/>
  <path id="形状_3_虚线" data-name="形状 3_虚线" fill="none" stroke="var(--primary-color)" stroke-width="6" stroke-dasharray="12 24" fill-rule="evenodd" d="M1117,895s-70.25,7.59,37,16,268,29,268,29,177.1,30.948,1,51-590,102-590,102"/>
  <path id="形状_2" data-name="形状 2" fill="none" stroke="var(--primary-color)" stroke-width="6" fill-rule="evenodd" d="M1443,1039s-497.544,70.8-512,107c-4.979,29.57,171.65,53.98,228,69,62.76,16.72,511,130,511,130"/>
  <path id="直线_1" data-name="直线 1" fill="none" stroke="var(--primary-color)" stroke-width="6" fill-rule="evenodd" d="M1557,1312h-1v-26h1v26Z"/>
  <path id="直线_2" data-name="直线 2" fill="none" stroke="var(--primary-color)" stroke-width="6" fill-rule="evenodd" d="M1452,1287h-1v-23h1v23Z"/>
  <path id="直线_3" data-name="直线 3" fill="none" stroke="var(--primary-color)" stroke-width="6" fill-rule="evenodd" d="M1373.5,1269.04l-1-.08,2-26,1,0.08Z"/>
  <path id="直线_4" data-name="直线 4" fill="none" stroke="var(--primary-color)" stroke-width="5.5" fill-rule="evenodd" d="M1296,1249h-1v-23h1v23Z"/>
  <path id="直线_5" data-name="直线 5" fill="none" stroke="var(--primary-color)" stroke-width="5.5" fill-rule="evenodd" d="M1225.5,1233.03l-1-.06,2-31,1,0.06Z"/>
  <path id="直线_6" data-name="直线 6" fill="none" stroke="var(--primary-color)" stroke-width="6" fill-rule="evenodd" d="M1157.5,1216.02l-1-.04,1-27,1,0.04Z"/>
  <path id="直线_7" data-name="直线 7" fill="none" stroke="var(--primary-color)" stroke-width="5" fill-rule="evenodd" d="M1093,1201h-1v-26h1v26Z"/>
  <path id="直线_8" data-name="直线 8" fill="none" stroke="var(--primary-color)" stroke-width="4.5" fill-rule="evenodd" d="M1033,1188h-1v-27h1v27Z"/>
  <path id="直线_9" data-name="直线 9" fill="none" stroke="var(--primary-color)" stroke-width="4.5" fill-rule="evenodd" d="M985,1177h-1v-26h1v26Z"/>
  <path id="直线_10" data-name="直线 10" fill="none" stroke="var(--primary-color)" stroke-width="4" fill-rule="evenodd" d="M950,1165h-1v-14h1v14Z"/>
  <path id="直线_11" data-name="直线 11" fill="none" stroke="var(--primary-color)" stroke-width="4" fill-rule="evenodd" d="M1507,1331h-1v-26h1v26Z"/>
  <path id="直线_12" data-name="直线 12" fill="none" stroke="var(--primary-color)" stroke-width="4" fill-rule="evenodd" d="M1414,1301h-1v-20h1v20Z"/>
  <path id="直线_13" data-name="直线 13" fill="none" stroke="var(--primary-color)" stroke-width="4" fill-rule="evenodd" d="M1345.5,1282.98l-1,.04-1-22,1-.04Z"/>
  <path id="直线_14" data-name="直线 14" fill="none" stroke="var(--primary-color)" stroke-width="4" fill-rule="evenodd" d="M1296,1266h-1v-15h1v15Z"/>
  <path id="直线_15" data-name="直线 15" fill="none" stroke="var(--primary-color)" stroke-width="4" fill-rule="evenodd" d="M1263,1243h1v17h-1v-17Z"/>
  <path id="直线_16" data-name="直线 16" fill="none" stroke="var(--primary-color)" stroke-width="4" fill-rule="evenodd" d="M1227,1233h1v15h-1v-15Z"/>
  <path id="直线_17" data-name="直线 17" fill="none" stroke="var(--primary-color)" stroke-width="4" fill-rule="evenodd" d="M1192,1225h1v18h-1v-18Z"/>
  <path id="直线_18" data-name="直线 18" fill="none" stroke="var(--primary-color)" stroke-width="4" fill-rule="evenodd" d="M1129,1209h1v17h-1v-17Z"/>
  <path id="直线_19" data-name="直线 19" fill="none" stroke="var(--primary-color)" stroke-width="4" fill-rule="evenodd" d="M1063,1196h1v14h-1v-14Z"/>
  <path id="直线_20" data-name="直线 20" fill="none" stroke="var(--primary-color)" stroke-width="4" fill-rule="evenodd" d="M1006,1183h1v13h-1v-13Z"/>
  <path id="直线_21" data-name="直线 21" fill="none" stroke="var(--primary-color)" stroke-width="4" fill-rule="evenodd" d="M964,1171h1v10h-1v-10Z"/>
  <g id="组_1-2" data-name="组 1" opacity="0.66">
    <path id="椭圆_4" data-name="椭圆 4" fill="none" stroke="var(--primary-color)" stroke-width="20" fill-rule="evenodd" d="M946.791,1042.34C910.193,1001.71,888,948.429,888,890.087c0-127.434,105.885-230.74,236.5-230.74S1361,762.653,1361,890.087a226.359,226.359,0,0,1-52.5,144.973"/>
    <path id="椭圆_5" data-name="椭圆 5" fill="none" stroke="var(--primary-color)" stroke-width="20" fill-rule="evenodd" d="M1017.57,1017.55c-28.42-27.38-46.224-65.147-46.7-106.852-0.961-83.626,68.1-151.419,154.264-151.419s156.78,67.793,157.74,151.419a147.1,147.1,0,0,1-45.44,108.012"/>
    <path id="椭圆_3" data-name="椭圆 3" fill="none" stroke="var(--primary-color)" stroke-width="30" fill-rule="evenodd" d="M858.646,1055.52a300.506,300.506,0,0,1-53.015-170.864c0-170.39,141.2-309.582,315.379-310.895S1436.39,709.513,1436.39,879.9a303.793,303.793,0,0,1-44.21,157.958"/>
  </g>
</svg>